:SAMPLES-PER-SECOND 30
:FULLY-SPECIFIED
:DEGREES
178
root  -40.0322 38.5061 -0.987769 6.81494 -80.6352 -12.3224
RightUpLeg  -7.18953 2.73857 7.6205
RightLeg  30.6789 -2.78524 -2.03975
RightFoot  -17.8497 -0.539111 -7.34497
RightToes  2.96859e-009 0 -3.6325e-017
Spine  9.93472 -1.98285 9.30881
Spine1  7.60279 -0.886266 0.201596
HEad  -9.81336 0.878024 -2.38553
LeftShoulder1  0.131814 3.1343 -29.5545
LeftArm  3.06753 -18.3201 -52.2316
LeftForeArm  20.0646 -42.1138 -8.79111
LeftHand  -0.110947 1.48492 3.11332
RightShoulder  -0.268358 -4.34319 24.72
RightArm  2.93013 12.6719 47.8705
RightForeArm  8.4831 52.3483 13.9625
RightHand  -0.600557 3.94377 -7.72227
LeftUpLeg  -23.9456 -2.71849 6.36156
LeftLeg  57.511 -1.81416 -2.53998
LeftFoot  -3.25432 0.143788 -1.76073
LeftToes  3.24686e-010 -7.02549e-012 1.39809e-011
179
root  -41.4449 38.6748 -0.569741 6.4937 -82.8426 -12.0751
RightUpLeg  -3.54465 4.2507 7.11545
RightLeg  28.7147 -2.35151 -1.64795
RightFoot  -18.9837 -0.619237 -7.33749
RightToes  2.96859e-009 0 -3.6325e-017
Spine  8.57187 -1.54247 9.24574
Spine1  7.89804 -0.373131 -1.21388
HEad  -8.25451 1.47652 -2.00294
LeftShoulder1  0.14583 3.08442 -28.5921
LeftArm  0.741525 -20.0482 -51.3988
LeftForeArm  19.1849 -43.5134 -9.32545
LeftHand  -0.129378 1.5288 3.70264
RightShoulder  -0.211783 -4.18058 23.6874
RightArm  2.45675 17.6019 48.7694
RightForeArm  6.92229 53.316 14.6313
RightHand  -0.638547 3.88681 -8.24629
LeftUpLeg  -25.5604 -2.66057 6.88917
LeftLeg  47.545 -2.5528 -2.55798
LeftFoot  -4.26596 0.149035 -1.99376
LeftToes  3.24686e-010 -7.02549e-012 1.39809e-011
180
root  -42.8832 38.7752 -0.172201 8.77477 -84.7886 -14.9046
RightUpLeg  0.677935 5.23218 6.88229
RightLeg  26.5355 -1.67894 -1.14913
RightFoot  -20.018 -0.700935 -7.44503
RightToes  2.96859e-009 0 -3.6325e-017
Spine  7.58543 -1.084 8.92973
Spine1  8.36702 -0.0264493 -1.67969
HEad  -6.88795 1.82053 -2.03244
LeftShoulder1  0.152227 3.05781 -28.0403
LeftArm  -1.08332 -22.7408 -50.4945
LeftForeArm  17.6316 -43.8359 -9.54895
LeftHand  -0.134795 1.62691 3.95572
RightShoulder  -0.11072 -3.87396 21.6638
RightArm  1.77168 22.4301 49.9431
RightForeArm  6.09692 53.5923 14.8612
RightHand  -0.669299 3.50813 -8.96317
LeftUpLeg  -25.2447 -2.26568 7.70622
LeftLeg  35.1797 -3.68438 -2.45516
LeftFoot  -3.27572 0.253552 -3.27951
LeftToes  3.24686e-010 -7.02549e-012 1.39809e-011
181
root  -44.3285 38.7763 0.179564 19.9052 -86.622 -26.2544
RightUpLeg  4.36536 6.64811 7.17993
RightLeg  24.6271 -1.43135 -0.952795
RightFoot  -20.9687 -0.785187 -7.62176
RightToes  2.96859e-009 0 -3.6325e-017
Spine  6.37716 -0.614683 8.96947
Spine1  9.03771 0.479696 -2.58728
HEad  -6.02028 2.39151 -1.80775
LeftShoulder1  0.212811 2.85606 -26.6139
LeftArm  -3.55082 -25.1798 -49.9479
LeftForeArm  16.864 -44.3056 -9.77234
LeftHand  -0.122585 2.04443 3.94824
RightShoulder  -0.0515339 -3.67095 20.0626
RightArm  1.6855 27.7132 50.6804
RightForeArm  3.69973 53.3542 14.9241
RightHand  -0.731747 3.56613 -9.72239
LeftUpLeg  -24.0649 -0.940064 8.73223
LeftLeg  21.5423 -4.80978 -1.67166
LeftFoot  -2.22629 0.449052 -5.48391
LeftToes  3.24686e-010 -7.02549e-012 1.39809e-011
182
root  -45.7745 38.6936 0.536524 53.7106 -87.9745 -60.7923
RightUpLeg  8.61841 7.53759 7.25291
RightLeg  22.6813 -0.697632 -0.548995
RightFoot  -22.1202 -0.884111 -7.77775
RightToes  2.96859e-009 0 -3.6325e-017
Spine  6.11403 -0.463114 8.77726
Spine1  9.50343 0.888479 -3.93812
HEad  -5.59308 3.36059 -1.43232
LeftShoulder1  0.224667 2.77216 -24.4856
LeftArm  -6.26887 -26.9832 -49.3585
LeftForeArm  16.1908 -45.0994 -10.1136
LeftHand  -0.147313 1.78859 4.52154
RightShoulder  0.0569583 -3.25433 18.5714
RightArm  1.70115 32.6674 51.4494
RightForeArm  2.11297 52.6655 14.6621
RightHand  -0.705045 3.70153 -9.24822
LeftUpLeg  -21.8821 2.32052 8.65352
LeftLeg  8.88337 -6.38708 -0.0939075
LeftFoot  -2.40966 0.559098 -6.97416
LeftToes  3.24686e-010 -7.02549e-012 1.39809e-011
183
root  -47.2784 38.4937 0.932112 113.658 -88.2357 -121.276
RightUpLeg  12.2856 8.32538 6.94567
RightLeg  21.6787 0.239368 -0.112918
RightFoot  -23.7686 -0.942735 -7.17003
RightToes  2.96859e-009 0 -3.6325e-017
Spine  5.17227 -0.204531 9.0825
Spine1  10.6613 1.63065 -5.86366
HEad  -4.94695 3.25761 -0.434301
LeftShoulder1  0.29723 2.49271 -23.0282
LeftArm  -8.44753 -29.2484 -48.1113
LeftForeArm  15.628 -45.5703 -10.3324
LeftHand  -0.161743 1.58158 4.75447
RightShoulder  0.126348 -2.9514 17.1768
RightArm  1.55199 37.2065 52.0407
RightForeArm  0.845948 51.6254 14.1921
RightHand  -0.721701 3.43723 -9.71773
LeftUpLeg  -20.3241 7.07397 7.69686
LeftLeg  0.38064 -8.15308 1.04833
LeftFoot  -3.47892 0.537562 -7.51512
LeftToes  3.24686e-010 -7.02549e-012 1.39809e-011
184
root  -48.8412 38.1033 1.38169 124.261 -87.397 -131.992
RightUpLeg  14.5085 7.74301 6.49447
RightLeg  22.881 1.25583 0.357776
RightFoot  -25.7972 -0.942713 -6.06064
RightToes  2.96859e-009 0 -3.6325e-017
Spine  4.44665 -0.187262 9.03768
Spine1  10.8409 1.70894 -6.33011
HEad  -4.32832 2.88975 0.174112
LeftShoulder1  0.357067 2.23592 -21.8089
LeftArm  -9.88118 -32.0417 -47.2308
LeftForeArm  15.2507 -45.0835 -10.1736
LeftHand  -0.151269 1.6092 4.45511
RightShoulder  0.200952 -2.56961 15.2403
RightArm  0.755572 40.4002 52.259
RightForeArm  -1.09853 50.6868 13.8481
RightHand  -0.780488 4.16856 -9.72273
LeftUpLeg  -20.7656 7.10445 7.8651
LeftLeg  -0.296821 -6.67023 0.764409
LeftFoot  -4.40642 0.497854 -7.69516
LeftToes  3.24686e-010 -7.02549e-012 1.39809e-011
185
root  -50.4304 37.6515 1.8636 134.246 -86.7443 -142.621
RightUpLeg  16.5379 7.53782 5.70274
RightLeg  25.82 2.14237 0.89924
RightFoot  -27.5258 -0.690499 -3.56751
RightToes  2.96859e-009 0 -3.6325e-017
Spine  5.27316 -0.223003 8.77821
Spine1  10.2178 1.94059 -7.27235
HEad  -3.93651 2.29938 1.26201
LeftShoulder1  0.40357 1.96291 -19.6419
LeftArm  -11.0764 -34.2279 -47.047
LeftForeArm  14.5109 -44.8599 -10.143
LeftHand  -0.124513 2.30376 4.31867
RightShoulder  0.319874 -1.95972 13.9863
RightArm  -0.886824 42.6887 51.1919
RightForeArm  -2.92785 50.0517 13.6623
RightHand  -0.680547 3.68111 -8.95605
LeftUpLeg  -21.7432 6.39502 7.39753
LeftLeg  5.28915 -6.10251 0.503996
LeftFoot  0.160213 0.635345 -6.65817
LeftToes  3.24686e-010 -7.02549e-012 1.39809e-011
186
root  -51.8882 37.209 2.33624 154.799 -86.3687 -164.044
RightUpLeg  16.9491 7.12144 3.28626
RightLeg  32.0582 3.66137 2.2694
RightFoot  -28.1308 -0.0628823 0.812828
RightToes  2.96859e-009 0 -3.6325e-017
Spine  7.10626 0.368889 6.52223
Spine1  9.74522 2.30683 -6.71985
HEad  -4.54077 1.04518 1.98957
LeftShoulder1  0.457314 1.74452 -19.4368
LeftArm  -11.1272 -37.6597 -46.6481
LeftForeArm  13.9373 -43.9174 -9.83372
LeftHand  -0.0983083 3.0334 4.18417
RightShoulder  0.33694 -1.76528 12.5736
RightArm  -3.00709 45.1899 48.9803
RightForeArm  -4.59981 49.1672 13.3482
RightHand  -0.676537 3.82856 -8.76789
LeftUpLeg  -22.9214 5.28774 6.478
LeftLeg  11.4877 -5.59264 -0.471055
LeftFoot  11.0489 1.11275 -5.86504
LeftToes  3.24686e-010 -7.02549e-012 1.39809e-011
187
root  -53.2613 36.7313 2.79295 -179.132 -85.8587 169.071
RightUpLeg  14.0812 5.45439 -1.2399
RightLeg  43.4365 5.14387 4.9338
RightFoot  -25.1811 0.672494 7.52915
RightToes  2.96859e-009 0 -3.6325e-017
Spine  9.81187 1.05214 3.03547
Spine1  8.77173 2.36677 -5.2385
HEad  -5.71566 -0.158754 2.42138
LeftShoulder1  0.544195 1.43971 -19.8503
LeftArm  -11.3535 -41.7184 -45.6054
LeftForeArm  12.5874 -42.4006 -9.39831
LeftHand  -0.129275 2.30804 4.50774
RightShoulder  0.422951 -1.11365 10.576
RightArm  -6.3154 46.8905 47.5485
RightForeArm  -4.43638 47.8787 12.7317
RightHand  -0.649414 3.37719 -8.82811
LeftUpLeg  -24.7347 4.47975 4.97517
LeftLeg  20.1779 -5.26358 -1.88622
LeftFoot  11.4909 1.49255 -7.6916
LeftToes  3.24686e-010 -7.02549e-012 1.39809e-011
188
root  -54.3929 36.4809 3.30432 -164.34 -84.4131 154.116
RightUpLeg  7.15714 3.7435 -6.1324
RightLeg  57.0948 4.77083 7.42803
RightFoot  -14.0624 0.315098 12.7104
RightToes  2.96859e-009 0 -3.6325e-017
Spine  12.8791 1.36117 2.10893
Spine1  7.6045 2.97047 -6.983
HEad  -7.95542 -1.48378 2.7562
LeftShoulder1  0.709601 0.677194 -18.6086
LeftArm  -11.8568 -45.9474 -44.5095
LeftForeArm  10.0815 -40.0081 -8.75544
LeftHand  -0.13378 2.28477 4.59214
RightShoulder  0.492567 -0.518999 9.13702
RightArm  -10.0637 48.9926 45.7606
RightForeArm  -5.44531 45.6416 11.8372
RightHand  -0.602095 2.97258 -8.57664
LeftUpLeg  -26.4659 5.96827 2.46949
LeftLeg  27.3749 -5.66874 -2.81912
LeftFoot  8.62385 0.548702 -3.42231
LeftToes  3.24686e-010 -7.02549e-012 1.39809e-011
